<svg width="258" height="186" viewBox="0 0 258 186" fill="none" xmlns="http://www.w3.org/2000/svg">
<path d="M8.31006 179.92C8.31006 179.92 27.8601 177.02 27.5801 150.98H35.2801V184.86L8.31006 179.92Z" fill="#4B2E83"/>
<path d="M249.72 179.87C249.72 179.87 229.48 178.08 229.76 152.04H223.44V185.92L249.72 179.87Z" fill="#4B2E83"/>
<path d="M254.42 162.55H234.21V119.44C234.21 110.41 232.59 101.71 229.61 93.53C225.23 70.89 206.47 53.87 183.99 53.87C160.2 53.87 140.6 72.93 137.77 97.54C135.46 99.8 132.12 101.23 128.4 101.23C124.68 101.23 121.44 99.84 119.13 97.64C112.28 78.4 94.0001 64.63 72.5101 64.63C52.7101 64.63 35.6301 76.32 27.7101 93.21C26.5301 95.73 25.5601 98.37 24.8001 101.1C24.2801 103.17 23.8401 105.28 23.4901 107.41C22.8501 111.34 22.5001 115.36 22.5001 119.44V146.81C22.5001 152.14 22.8901 157.39 23.5801 162.55H2.83008C4.17008 167.72 5.93008 172.74 8.04008 177.61H249.22C251.33 172.74 253.09 167.71 254.43 162.55H254.42Z" fill="#4B2E83"/>
<path d="M250.4 178.11L250.15 178.06C245.61 177.14 230.72 172.49 229.52 151.25V151.11V129.34C229.52 119.86 228.05 110.48 225.16 101.46L225.11 101.29L225.08 101.12C220.88 76.68 202.94 58.95 182.43 58.95C160.61 58.95 142.04 78.82 139.23 105.16L139.14 106L138.55 106.62C135.97 109.33 132.36 110.88 128.63 110.88C124.9 110.88 121.35 109.38 118.74 106.65L118.34 106.23L118.16 105.68C111.51 84.78 93.99 70.74 74.55 70.74C56.71 70.74 40.24 82.68 32.59 101.15C31.48 103.83 30.56 106.68 29.84 109.6C29.35 111.79 28.93 114.08 28.61 116.35C27.98 120.7 27.66 125.07 27.66 129.33V149.41H27.62C26.8 171.28 12.22 176.82 7.63001 178.02L7.32001 178.1H3.50001L3.29001 175.83C2.77001 170.29 2.51001 164.75 2.51001 159.34V135.97C2.51001 115.46 6.80001 95.77 15.25 77.46C25.47 55.32 41.26 36.61 60.92 23.34C81.12 9.71 104.54 2.5 128.63 2.5C152.72 2.5 176.07 9.69 196.27 23.3C215.91 36.53 231.7 55.2 241.94 77.29C250.45 95.65 254.76 115.4 254.76 135.98V178.11H250.41H250.4Z" fill="white"/>
<path d="M128.63 5C152.18 5 175.09 12.04 194.87 25.37C214.13 38.35 229.62 56.67 239.67 78.34C248.03 96.37 252.26 115.77 252.26 135.98V175.61H250.66C246.48 174.76 233.13 170.53 232.02 151.1V129.33C232.02 119.59 230.51 109.95 227.54 100.69C223.13 75.05 204.17 56.44 182.43 56.44C159.28 56.44 139.69 77.24 136.75 104.88C134.64 107.1 131.7 108.36 128.64 108.36C125.58 108.36 122.69 107.13 120.56 104.9C113.57 82.95 95.12 68.22 74.57 68.22C55.71 68.22 38.34 80.76 30.3 100.18C29.14 102.98 28.18 105.94 27.44 108.99C26.93 111.29 26.5 113.64 26.16 115.98C25.52 120.45 25.19 124.94 25.19 129.32V146.9C25.43 169.18 11.17 174.51 7.04 175.59H5.78C5.27 170.13 5.01 164.66 5.01 159.33V135.96C5.01 115.81 9.22 96.48 17.52 78.5C27.54 56.78 43.04 38.42 62.32 25.4C82.11 12.06 105.04 5 128.63 5ZM128.63 0C104.04 0 80.14 7.36 59.51 21.28C39.47 34.81 23.37 53.88 12.97 76.43C4.36 95.07 0 115.11 0 135.98V159.35C0 164.84 0.27 170.46 0.79 176.08L1.22 180.61H7.67L8.29 180.45C11.1 179.72 16.54 177.73 21.36 172.67C26.37 167.41 29.26 160.45 30 151.93H30.18V146.93V129.35C30.18 125.21 30.49 120.96 31.1 116.73C31.42 114.53 31.82 112.32 32.3 110.16C32.98 107.38 33.86 104.67 34.91 102.12C42.17 84.58 57.73 73.25 74.56 73.25C92.9 73.25 109.47 86.59 115.79 106.44L116.14 107.54L116.94 108.38C120.02 111.61 124.18 113.38 128.63 113.38C133.08 113.38 137.31 111.54 140.36 108.35L141.53 107.12L141.71 105.43C144.38 80.36 161.88 61.46 182.42 61.46C201.71 61.46 218.61 78.32 222.6 101.55L222.66 101.9L222.77 102.23C225.58 111 227.01 120.13 227.01 129.35V151.4C227.57 161.08 230.87 168.7 236.83 174.06C241.67 178.41 246.94 179.98 249.65 180.53L250.14 180.63H257.24V136C257.24 115.05 252.85 94.95 244.18 76.26C233.75 53.76 217.66 34.74 197.64 21.25C177.05 7.34 153.18 0 128.63 0Z" fill="#4B2E83"/>
<path d="M138.16 129.17L130.41 130.75C128.24 131.19 128 136.91 129.97 141.03L137.02 155.79C138.99 159.92 141.7 159.36 141.9 154.79L142.6 138.44C142.8 133.87 140.33 128.71 138.16 129.15V129.17Z" fill="white"/>
<path d="M103.8 110.82C102.57 106.32 99.37 102.9 95.39 101.2C93.12 100.04 90.55 99.37 87.83 99.37C84.08 99.37 80.64 100.63 77.86 102.72C74.02 105.62 71.48 110.13 71.26 115.26C71.25 115.5 71.22 115.74 71.22 115.98C71.22 120.02 72.67 123.72 75.06 126.6C78.44 131.85 84.94 134.55 91.28 132.81L108.54 128.08L103.81 110.81L103.8 110.82Z" fill="white"/>
<path d="M155.16 103.6C154.77 98.9499 156.6 94.64 159.76 91.68C161.49 89.81 163.67 88.3 166.23 87.36C169.75 86.07 173.42 86.07 176.75 87.08C181.36 88.48 185.29 91.8499 187.26 96.5899C187.35 96.8099 187.46 97.03 187.54 97.26C188.93 101.06 188.84 105.03 187.58 108.56C186.21 114.65 181.03 119.42 174.48 119.96L156.64 121.44L155.16 103.6Z" fill="white"/>
</svg>
